<svg width="18" height="18" viewBox="0 0 18 18" fill="none" xmlns="http://www.w3.org/2000/svg">
<path d="M12.9672 6.98252C12.8978 6.91299 12.8154 6.85783 12.7246 6.82019C12.6339 6.78256 12.5367 6.76318 12.4384 6.76318C12.3402 6.76318 12.2429 6.78256 12.1522 6.82019C12.0615 6.85783 11.9791 6.91299 11.9097 6.98252L8.99968 9.89252L6.08968 6.98252C5.94945 6.84228 5.75925 6.7635 5.56093 6.7635C5.36261 6.7635 5.17241 6.84228 5.03218 6.98252C4.89194 7.12275 4.81316 7.31295 4.81316 7.51127C4.81316 7.70959 4.89194 7.89978 5.03218 8.04002L8.47468 11.4825C8.54406 11.552 8.62648 11.6072 8.71721 11.6448C8.80794 11.6825 8.9052 11.7018 9.00343 11.7018C9.10165 11.7018 9.19892 11.6825 9.28965 11.6448C9.38038 11.6072 9.46279 11.552 9.53218 11.4825L12.9747 8.04002C13.2597 7.75502 13.2597 7.27502 12.9672 6.98252Z" fill="#414141"/>
</svg>
