<svg width="23" height="18" viewBox="0 0 23 18" fill="none" xmlns="http://www.w3.org/2000/svg">
<g clip-path="url(#clip0_10558_946)">
<path d="M22.1063 16.2918L20.5589 12.6H18.8611L19.8039 16.2H3.20316L4.14605 12.6H2.44817L0.899698 16.2918C0.506921 17.2314 1.20305 18 2.44817 18H20.5589C21.8041 18 22.5002 17.2314 22.1063 16.2918ZM17.1632 4.5C17.1632 3.30653 16.5669 2.16193 15.5055 1.31802C14.4441 0.474106 13.0046 0 11.5036 0C10.0025 0 8.56298 0.474106 7.5016 1.31802C6.44022 2.16193 5.84394 3.30653 5.84394 4.5C5.84394 8.7975 11.5036 13.5 11.5036 13.5C11.5036 13.5 17.1632 8.7975 17.1632 4.5ZM8.44736 4.554C8.44736 3.2121 9.81472 2.1249 11.5036 2.1249C12.314 2.1249 13.0912 2.38087 13.6642 2.8365C14.2372 3.29213 14.5592 3.91009 14.5592 4.55445C14.5592 5.19881 14.2372 5.81677 13.6642 6.2724C13.0912 6.72803 12.314 6.984 11.5036 6.984C10.693 6.984 9.91565 6.72798 9.3425 6.27227C8.76935 5.81656 8.44736 5.19848 8.44736 4.554Z" fill="#4E4B66"/>
</g>
<defs>
<clipPath id="clip0_10558_946">
<rect width="22.6385" height="18" fill="white" transform="translate(0.18457)"/>
</clipPath>
</defs>
</svg>
