<svg width="13" height="20" viewBox="0 0 13 20" fill="none" xmlns="http://www.w3.org/2000/svg">
<path d="M8 20H4C3.73478 20 3.48043 19.8946 3.29289 19.7071C3.10536 19.5195 3 19.2652 3 19V12.8H1C0.734784 12.8 0.48043 12.6946 0.292893 12.5071C0.105357 12.3195 0 12.0652 0 11.8V8.19995C0 7.93474 0.105357 7.68038 0.292893 7.49285C0.48043 7.30531 0.734784 7.19995 1 7.19995H3V5.49995C3.0701 3.97631 3.74062 2.5424 4.86497 1.51174C5.98932 0.481088 7.47602 -0.0624558 9 -4.54872e-05H12C12.2652 -4.54872e-05 12.5196 0.105311 12.7071 0.292848C12.8946 0.480384 13 0.734738 13 0.999954V4.59995C13 4.86517 12.8946 5.11953 12.7071 5.30706C12.5196 5.4946 12.2652 5.59995 12 5.59995H9V7.19995H12C12.1544 7.19878 12.307 7.23339 12.4458 7.30105C12.5846 7.36871 12.7058 7.4676 12.8 7.58995C12.8931 7.71415 12.9561 7.85833 12.9839 8.01107C13.0116 8.16381 13.0035 8.32092 12.96 8.46995L11.96 12.07C11.8995 12.2863 11.768 12.4759 11.5866 12.6083C11.4052 12.7408 11.1844 12.8083 10.96 12.8H9V19C9 19.2652 8.89464 19.5195 8.70711 19.7071C8.51957 19.8946 8.26522 20 8 20ZM5 18H7V11.8C7 11.5347 7.10536 11.2804 7.29289 11.0928C7.48043 10.9053 7.73478 10.8 8 10.8H10.24L10.68 9.19995H8C7.73478 9.19995 7.48043 9.0946 7.29289 8.90706C7.10536 8.71952 7 8.46517 7 8.19995V5.49995C7.02568 4.98704 7.24767 4.50366 7.62 4.14995C7.99233 3.79624 8.48645 3.59931 9 3.59995H11V1.99995H9C8.00681 1.93944 7.02982 2.27299 6.28098 2.92822C5.53214 3.58345 5.07186 4.50752 5 5.49995V8.19995C5 8.46517 4.89464 8.71952 4.70711 8.90706C4.51957 9.0946 4.26522 9.19995 4 9.19995H2V10.8H4C4.26522 10.8 4.51957 10.9053 4.70711 11.0928C4.89464 11.2804 5 11.5347 5 11.8V18Z" fill="#6E7191"/>
</svg>
