<svg width="67" height="27" viewBox="0 0 67 27" fill="none" xmlns="http://www.w3.org/2000/svg">
<g clip-path="url(#clip0_32_10782)">
<path d="M31.2512 13.1649V20.5044H28.8174V2.37914H35.2723C36.0427 2.36376 36.8087 2.49451 37.526 2.76382C38.2434 3.03314 38.8979 3.4357 39.4518 3.94828C40.0113 4.42973 40.4565 5.02018 40.7577 5.67995C41.0589 6.33972 41.2089 7.05353 41.1978 7.77339C41.2138 8.49714 41.0661 9.21564 40.7647 9.87966C40.4633 10.5437 40.0155 11.1375 39.4518 11.6204C38.3232 12.6501 36.9299 13.1644 35.2723 13.1634H31.2512V13.1649ZM31.2512 4.61073V10.9378H35.3325C35.78 10.9504 36.2253 10.8736 36.6399 10.7122C37.0546 10.5509 37.4294 10.3084 37.7406 10.0005C38.05 9.71264 38.296 9.3683 38.464 8.98788C38.632 8.60746 38.7185 8.19868 38.7185 7.78571C38.7185 7.37274 38.632 6.96395 38.464 6.58353C38.296 6.20311 38.05 5.85878 37.7406 5.57089C37.4333 5.25646 37.0598 5.0081 36.6446 4.84227C36.2295 4.67644 35.7822 4.59693 35.3325 4.609H31.2512V4.61048V4.61073ZM46.8059 7.69822C48.6047 7.69822 50.0249 8.15809 51.0658 9.07783C52.1068 9.99782 52.6268 11.2589 52.6258 12.8613V20.5044H50.2979V18.7834H50.1923C49.1843 20.2005 47.844 20.9093 46.1712 20.9093C44.7431 20.9093 43.5483 20.5044 42.587 19.6945C42.1256 19.3228 41.7568 18.8573 41.5073 18.3319C41.2579 17.8065 41.1341 17.2345 41.145 16.6576C41.145 15.3743 41.6519 14.3538 42.6656 13.596C43.6795 12.8381 45.0329 12.4581 46.7258 12.4564C48.1709 12.4564 49.361 12.7092 50.2964 13.2154V12.6831C50.2991 12.2898 50.2103 11.9009 50.0365 11.5445C49.8626 11.1881 49.608 10.8732 49.2912 10.6226C48.6476 10.067 47.8088 9.76383 46.9419 9.77355C45.5826 9.77355 44.5069 10.3221 43.7147 11.4193L41.5713 10.1279C42.7503 8.50805 44.495 7.69822 46.8059 7.69822ZM43.6573 16.7083C43.6557 17.0046 43.7281 17.2969 43.8685 17.561C44.0089 17.825 44.2132 18.0532 44.4644 18.2265C45.0027 18.6316 45.6708 18.8462 46.3556 18.834C47.3826 18.8323 48.367 18.4413 49.0931 17.7466C49.8994 17.0206 50.3023 16.1686 50.3023 15.191C49.5437 14.6126 48.4855 14.3235 47.1279 14.3235C46.1393 14.3235 45.3149 14.5514 44.655 15.0074C43.9883 15.4702 43.6573 16.0326 43.6573 16.7081V16.7083ZM65.9887 8.10313L57.8623 25.9711H55.3499L58.3656 19.7192L53.0217 8.10313H55.6673L59.5294 17.0117H59.5825L63.3388 8.10313H65.9887Z" fill="#5F6368"/>
<path d="M21.4166 11.5821C21.4176 10.8723 21.3548 10.1643 21.2293 9.46484H10.9648V13.4753H16.8437C16.7234 14.1158 16.4688 14.7264 16.0952 15.2703C15.7216 15.8141 15.2367 16.2799 14.6699 16.6397V19.2426H18.1783C20.2327 17.4305 21.4163 14.7506 21.4163 11.5821H21.4166Z" fill="#4285F4"/>
<path d="M10.9653 21.7585C13.9024 21.7585 16.3756 20.8358 18.179 19.245L14.6705 16.6418C13.6937 17.2751 12.4361 17.6369 10.9653 17.6369C8.12653 17.6369 5.71696 15.8058 4.85504 13.3389H1.24121V16.0214C2.14708 17.746 3.53614 19.1957 5.25329 20.2088C6.97044 21.2219 8.94811 21.7584 10.9655 21.7585H10.9653Z" fill="#34A853"/>
<path d="M4.85558 13.3383C4.40006 12.0454 4.40006 10.6454 4.85558 9.3525V6.66992H1.24097C0.478912 8.12069 0.0820313 9.72186 0.0820312 11.3455C0.0820313 12.9692 0.478912 14.5704 1.24097 16.0211L4.85506 13.3383H4.85558Z" fill="#FBBC04"/>
<path d="M10.9648 5.05416C12.5169 5.02993 14.0167 5.59102 15.1399 6.61615L18.2466 3.64399C16.2767 1.87382 13.6669 0.902016 10.9645 0.932329C8.94711 0.932441 6.96942 1.46901 5.25226 2.48212C3.53511 3.49524 2.14607 4.94502 1.24023 6.66963L4.85433 9.35221C5.71625 6.88527 8.12581 5.05416 10.9645 5.05416H10.9648Z" fill="#EA4335"/>
</g>
<defs>
<clipPath id="clip0_32_10782">
<rect width="65.9449" height="25.1376" fill="white" transform="translate(0.0810547 0.892578)"/>
</clipPath>
</defs>
</svg>
