<svg width="30" height="30" viewBox="0 0 30 30" fill="none" xmlns="http://www.w3.org/2000/svg">
<path fill-rule="evenodd" clip-rule="evenodd" d="M15 6.5625C15.2486 6.5625 15.4871 6.66127 15.6629 6.83709C15.8387 7.0129 15.9375 7.25136 15.9375 7.5V15C15.9375 15.2486 15.8387 15.4871 15.6629 15.6629C15.4871 15.8387 15.2486 15.9375 15 15.9375H7.5C7.25136 15.9375 7.0129 15.8387 6.83709 15.6629C6.66127 15.4871 6.5625 15.2486 6.5625 15C6.5625 14.7514 6.66127 14.5129 6.83709 14.3371C7.0129 14.1613 7.25136 14.0625 7.5 14.0625H14.0625V7.5C14.0625 7.25136 14.1613 7.0129 14.3371 6.83709C14.5129 6.66127 14.7514 6.5625 15 6.5625Z" fill="#5F2EEA"/>
<path fill-rule="evenodd" clip-rule="evenodd" d="M14.0625 15C14.0625 14.7514 14.1613 14.5129 14.3371 14.3371C14.5129 14.1613 14.7514 14.0625 15 14.0625H22.5C22.7486 14.0625 22.9871 14.1613 23.1629 14.3371C23.3387 14.5129 23.4375 14.7514 23.4375 15C23.4375 15.2486 23.3387 15.4871 23.1629 15.6629C22.9871 15.8387 22.7486 15.9375 22.5 15.9375H15.9375V22.5C15.9375 22.7486 15.8387 22.9871 15.6629 23.1629C15.4871 23.3387 15.2486 23.4375 15 23.4375C14.7514 23.4375 14.5129 23.3387 14.3371 23.1629C14.1613 22.9871 14.0625 22.7486 14.0625 22.5V15Z" fill="#5F2EEA"/>
</svg>
