<svg width="20" height="16" viewBox="0 0 20 16" fill="none" xmlns="http://www.w3.org/2000/svg">
<path d="M6.5096 15.9995H6.4296C4.81796 15.9854 3.22963 15.6131 1.7796 14.9095C1.51288 14.7842 1.29326 14.5769 1.15291 14.3177C1.01255 14.0586 0.958829 13.7614 0.999603 13.4695C1.04395 13.1757 1.17999 12.9034 1.38831 12.6915C1.59663 12.4796 1.86657 12.3389 2.1596 12.2895C3.05821 12.1696 3.92269 11.8667 4.6996 11.3995C3.35076 10.345 2.31235 8.94511 1.69442 7.34834C1.07649 5.75157 0.902054 4.01738 1.1896 2.32953C1.22859 2.06218 1.34357 1.81167 1.52085 1.60779C1.69813 1.40392 1.93026 1.25527 2.1896 1.17953C2.44192 1.10029 2.71195 1.09691 2.96617 1.16979C3.22039 1.24268 3.44761 1.38864 3.6196 1.58953C4.20361 2.35532 4.9375 2.99409 5.77651 3.4669C6.61552 3.9397 7.54206 4.23662 8.4996 4.33953C8.54534 3.16139 9.05164 2.04825 9.9096 1.23953C10.338 0.829306 10.8438 0.508444 11.3974 0.295641C11.9511 0.0828376 12.5415 -0.0176498 13.1344 3.40755e-05C13.7273 0.0177179 14.3107 0.15322 14.8507 0.398643C15.3907 0.644066 15.8764 0.994502 16.2796 1.42953C16.3846 1.5224 16.5152 1.58158 16.6542 1.59941C16.7933 1.61724 16.9345 1.5929 17.0596 1.52953C17.298 1.41708 17.5635 1.37475 17.8251 1.40748C18.0867 1.44021 18.3336 1.54665 18.5369 1.71438C18.7403 1.88211 18.8918 2.10422 18.9737 2.35479C19.0556 2.60536 19.0646 2.87406 18.9996 3.12953C18.769 4.07965 18.3319 4.96733 17.7196 5.72953C17.5846 8.57428 16.3305 11.2503 14.2305 13.1741C12.1306 15.098 9.35527 16.1136 6.5096 15.9995V15.9995ZM6.5096 13.9995H6.5896C7.75227 14.0395 8.91131 13.8483 9.99953 13.437C11.0878 13.0257 12.0835 12.4025 12.929 11.6034C13.7746 10.8044 14.4531 9.84545 14.9253 8.78222C15.3974 7.71899 15.6538 6.5726 15.6796 5.40953C15.6961 5.09078 15.8276 4.78881 16.0496 4.55953C16.2935 4.25078 16.5015 3.91529 16.6696 3.55953C16.3094 3.56022 15.953 3.48486 15.6239 3.33839C15.2948 3.19192 15.0002 2.97763 14.7596 2.70953C14.5282 2.48009 14.2534 2.29911 13.9511 2.1772C13.6489 2.05528 13.3254 1.99488 12.9996 1.99953C12.6705 1.99102 12.343 2.0476 12.0358 2.16601C11.7286 2.28441 11.4478 2.46233 11.2096 2.68953C10.8882 2.99453 10.6525 3.3786 10.5261 3.8033C10.3998 4.228 10.3872 4.67843 10.4896 5.10953L10.7496 6.24953L9.5796 6.32953C8.3807 6.4273 7.17487 6.2633 6.04562 5.84889C4.91637 5.43449 3.89069 4.77959 3.0396 3.92953C3.0031 5.24593 3.3324 6.54666 3.9909 7.6871C4.64939 8.82755 5.61127 9.76303 6.7696 10.3895L7.7196 10.9295L7.0896 11.8295C6.40829 12.7231 5.47479 13.3918 4.4096 13.7495C5.09292 13.9208 5.79517 14.0048 6.4996 13.9995H6.5096Z" fill="#6E7191"/>
</svg>
